<svg xmlns="http://www.w3.org/2000/svg" x="0px" y="0px" width="256" height="256" viewBox="0 0 64 64"
			style=" fill:#000000;">
			<path fill="#85cbf8"
				d="M59,59H13c-1.105,0-2-0.895-2-2V15c0-1.105,0.895-2,2-2h46c1.105,0,2,0.895,2,2v42 C61,58.105,60.105,59,59,59z">
			</path>
			<path fill="#72caaf"
				d="M51,51H5c-1.105,0-2-0.895-2-2V7c0-1.105,0.895-2,2-2h46c1.105,0,2,0.895,2,2v42 C53,50.105,52.105,51,51,51z">
			</path>
			<path fill="#5dbc9d"
				d="M52,51H4c-0.552,0-1-0.448-1-1v0c0-2.209,1.791-4,4-4h42c2.209,0,4,1.791,4,4v0 C53,50.552,52.552,51,52,51z">
			</path>
			<path fill="#bbdef9" d="M9 11H47V45H9z"></path>
			<path fill="#8d6c9f"
				d="M59,12h-5V7c0-1.654-1.346-3-3-3H5C3.346,4,2,5.346,2,7v42c0,1.654,1.346,3,3,3h5v5 c0,1.654,1.346,3,3,3h46c1.654,0,3-1.346,3-3V15C62,13.346,60.654,12,59,12z M4,49V7c0-0.551,0.449-1,1-1h46c0.551,0,1,0.449,1,1 v5.998c0,0,0,0.002,0,0.002s0,0.002,0,0.002V49c0,0.551-0.449,1-1,1H5C4.449,50,4,49.551,4,49z M60,57c0,0.551-0.449,1-1,1H13 c-0.551,0-1-0.449-1-1v-5h39c1.654,0,3-1.346,3-3V14h5c0.551,0,1,0.449,1,1V57z">
			</path>
			<path fill="#8d6c9f"
				d="M23 36c-.256 0-.512-.098-.707-.293l-8-8c-.391-.391-.391-1.023 0-1.414s1.023-.391 1.414 0L23 33.586l17.293-17.293c.391-.391 1.023-.391 1.414 0s.391 1.023 0 1.414l-18 18C23.512 35.902 23.256 36 23 36zM13 42c-.552 0-1-.448-1-1v-2c0-.552.448-1 1-1s1 .448 1 1v2C14 41.552 13.552 42 13 42zM28 42c-.552 0-1-.448-1-1v-2c0-.552.448-1 1-1s1 .448 1 1v2C29 41.552 28.552 42 28 42zM33 42c-.552 0-1-.448-1-1v-2c0-.552.448-1 1-1s1 .448 1 1v2C34 41.552 33.552 42 33 42zM38 42c-.552 0-1-.448-1-1v-2c0-.552.448-1 1-1s1 .448 1 1v2C39 41.552 38.552 42 38 42zM43 42c-.552 0-1-.448-1-1v-2c0-.552.448-1 1-1s1 .448 1 1v2C44 41.552 43.552 42 43 42zM18 42c-.552 0-1-.448-1-1v-2c0-.552.448-1 1-1s1 .448 1 1v2C19 41.552 18.552 42 18 42zM23 42c-.552 0-1-.448-1-1v-2c0-.552.448-1 1-1s1 .448 1 1v2C24 41.552 23.552 42 23 42z">
			</path>
			<path fill="#8d6c9f"
				d="M47,46H9c-0.552,0-1-0.448-1-1V11c0-0.552,0.448-1,1-1h38c0.552,0,1,0.448,1,1v34 C48,45.552,47.552,46,47,46z M10,44h36V12H10V44z">
			</path>
		</svg>